<svg enable-background="new 0 0 256 256" height="512" viewBox="0 0 256 256" width="512" xmlns="http://www.w3.org/2000/svg"><path d="m159.473 97.452c6.794-13.922 13.284-33.871 16.656-51.159 6.036-30.944-.202-41.584-10.081-43.51-9.879-1.927-19.658 5.588-25.693 36.533-2.594 13.299-4.073 28.759-4.133 42.222 9.19 2.564 17.259 8.223 23.251 15.914z" fill="#a8aeb2"/><path d="m90.67 97.452c5.992-7.692 14.061-13.35 23.251-15.915-.06-13.463-1.539-28.923-4.133-42.222-6.036-30.944-15.815-38.459-25.694-36.532s-16.117 12.566-10.081 43.51c3.372 17.289 9.863 37.238 16.657 51.159z" fill="#a8aeb2"/><path d="m174.741 130.061c-2.709-3.551-4.648-7.655-5.622-12.014-4.885-21.843-22.748-38.041-44.047-38.041s-39.162 16.198-44.047 38.041c-.975 4.359-2.914 8.462-5.622 12.014-3.176 4.164-5.063 9.363-5.063 15.005 0 12.264 8.902 22.416 20.534 24.421 4.279.738 8.443 2.095 12.14 4.372 6.53 4.022 14.05 6.318 22.059 6.318s15.529-2.296 22.059-6.318c3.698-2.278 7.862-3.634 12.141-4.372 11.629-2.006 20.533-12.155 20.533-24.421-.002-5.642-1.889-10.841-5.065-15.005z" fill="#a8aeb2"/><path d="m151.165 247.219c0 6.242-5.048 6.279-11.275 6.279s-11.275-.037-11.275-6.279 5.048-11.303 11.275-11.303 11.275 5.061 11.275 11.303z" fill="#e3e4e5"/><path d="m120.671 247.219c0 6.242-5.048 6.279-11.275 6.279s-11.275-.037-11.275-6.279 5.048-11.303 11.275-11.303c6.227.001 11.275 5.061 11.275 11.303z" fill="#e3e4e5"/><g fill="#a8aeb2"><path d="m147.13 173.859c-6.53 4.022-14.05 6.318-22.059 6.318s-15.529-2.296-22.059-6.318c-3.315-2.042-7.006-3.34-10.819-4.119-14.305 29.361 3.685 56.765 12.243 67.34 7.495-3.691 16.235 1.796 16.235 10.139 0 .686-.071 1.286-.188 1.831 2.642.391 5.514.415 8.319 0-.117-.545-.188-1.144-.188-1.831 0-6.242 5.048-11.303 11.275-11.303 1.782 0 3.461.426 4.959 1.164 8.541-10.554 26.477-37.874 12.323-67.171-3.535.794-6.951 2.047-10.041 3.95z"/><path d="m148.701 240.179c0-.001 0-.001 0 0 6.168-.639 10.542-1.12 13.73-1.452 7.708-6.525 18.459-20.61-.391-39.446-1.468 11.871-6.57 22.263-11.407 29.788-.004.006-.008.013-.012.019-1.782 2.77-3.739 5.48-5.772 7.992 1.502.74 2.818 1.799 3.852 3.099z"/><path d="m86.854 238.727c3.188.332 7.562.813 13.731 1.451v.001c1.035-1.299 2.35-2.358 3.852-3.098-2.227-2.753-4.443-5.837-6.497-9.139-.004-.006-.007-.011-.011-.017-4.613-7.418-9.289-17.363-10.683-28.643-18.851 18.835-8.1 32.92-.392 39.445z"/><path d="m190.783 186.396c-7.701-7.204-20.529.185-28.363 6.176.002 2.274-.154 4.5-.424 6.681l.044.029c2.942 2.939 5.162 5.763 6.786 8.46 16.047 6.741 32.723-11.276 21.957-21.346z"/></g><path d="m180.025 249.649-.78-3.638c-.821-3.827-3.77-6.747-7.448-7.625-2.434-.581-5.366-.041-23.096 1.792 1.539 1.932 2.464 4.377 2.464 7.042 0 4.569-2.71 5.809-6.601 6.148l-.041.131h32.766c1.642-.001 3.215-1.618 2.736-3.85z" fill="#e3e4e5"/><path d="m98.12 247.219c0-2.665.926-5.109 2.464-7.042-17.73-1.833-20.661-2.374-23.096-1.792-3.678.878-6.628 3.798-7.448 7.625l-.78 3.638c-.479 2.232 1.094 3.85 2.737 3.85h32.766l-.041-.131c-3.892-.339-6.602-1.579-6.602-6.148z" fill="#e3e4e5"/><path d="m124.694 188.016c-5.886 0-10.657 4.771-10.657 10.657v20.267s.097.521.266 1.44c1.73 5.103 3.917 13.081 4.739 20.982 1.025 1.68 1.63 3.668 1.63 5.857 0 .686-.071 1.286-.188 1.831 2.642.391 5.514.415 8.319 0-.117-.545-.188-1.144-.188-1.831 0-2.139.597-4.136 1.63-5.839.828-7.957 3.04-16.004 4.775-21.107.157-.855.246-1.334.246-1.334l.085-20.175c.051-5.921-4.735-10.748-10.657-10.748z" fill="#e3e4e5"/><path d="m137.269 137.182c0 3.745-6.253 9.04-12.197 9.04s-12.197-5.296-12.197-9.04c0-3.745 6.253-4.033 12.197-4.033 5.943-.001 12.197.288 12.197 4.033z" fill="#f98080"/><path d="m125.071 150.012c0 3.395-2.339 6.237-5.492 7.02v3.088c0 1.685 1.379 3.064 3.064 3.064h4.856c1.685 0 3.064-1.379 3.064-3.064v-3.088c-3.152-.784-5.492-3.625-5.492-7.02z" fill="#e3e4e5"/><path d="m159.473 97.452c6.794-13.922 13.284-33.871 16.656-51.159 2.269-11.633 2.803-20.394 2.061-26.904-1.74-2.496-4.061-3.833-6.715-4.351-8.069-1.574-16.13 4.945-21.313 31.519-2.432 12.468-3.795 27.131-3.726 39.35 4.973 2.937 9.39 6.863 13.037 11.545z" fill="#f98080"/><path d="m90.669 97.452c3.648-4.682 8.065-8.609 13.037-11.545.069-12.219-1.294-26.882-3.726-39.35-5.183-26.573-13.244-33.092-21.313-31.519-2.654.518-4.975 1.855-6.715 4.351-.741 6.509-.208 15.271 2.061 26.904 3.372 17.289 9.863 37.238 16.656 51.159z" fill="#f98080"/><path d="m132.313 159.754c-5.372 0-9.742-4.37-9.742-9.742v-3.193c0-1.381 1.119-2.5 2.5-2.5s2.5 1.119 2.5 2.5v3.193c0 2.615 2.127 4.742 4.742 4.742s4.743-2.127 4.743-4.742c0-1.381 1.119-2.5 2.5-2.5s2.5 1.119 2.5 2.5c.001 5.372-4.37 9.742-9.743 9.742z"/><path d="m117.829 159.754c-5.372 0-9.743-4.37-9.743-9.742 0-1.381 1.119-2.5 2.5-2.5s2.5 1.119 2.5 2.5c0 2.615 2.127 4.742 4.743 4.742 2.615 0 4.742-2.127 4.742-4.742v-3.193c0-1.381 1.119-2.5 2.5-2.5s2.5 1.119 2.5 2.5v3.193c0 5.372-4.37 9.742-9.742 9.742z"/><path d="m125.071 182.677c-8.184 0-16.265-2.313-23.37-6.689-3.137-1.932-6.923-3.29-11.254-4.037-13.1-2.259-22.608-13.566-22.608-26.886 0-6.025 1.928-11.738 5.575-16.521 2.5-3.277 4.288-7.096 5.17-11.043 5.267-23.549 24.382-39.996 46.487-39.996s41.221 16.447 46.486 39.996c.883 3.946 2.671 7.765 5.171 11.043h.001c3.647 4.783 5.575 10.496 5.575 16.521 0 13.319-9.508 24.625-22.608 26.885-4.332.748-8.119 2.106-11.254 4.038-7.105 4.376-15.187 6.689-23.371 6.689zm0-100.171c-19.746 0-36.855 14.839-41.607 36.086-1.039 4.647-3.14 9.137-6.075 12.984-2.977 3.904-4.551 8.568-4.551 13.489 0 10.879 7.763 20.114 18.458 21.958 4.962.855 9.345 2.439 13.027 4.708 6.316 3.89 13.49 5.946 20.748 5.946s14.432-2.056 20.748-5.946c3.681-2.268 8.063-3.852 13.027-4.708 10.695-1.845 18.458-11.08 18.458-21.958 0-4.92-1.574-9.584-4.552-13.489h.001c-2.936-3.848-5.037-8.338-6.075-12.984-4.751-21.247-21.861-36.086-41.607-36.086z"/><path d="m159.474 99.952c-.766 0-1.495-.352-1.972-.963-5.81-7.455-13.399-12.657-21.951-15.043-1.085-.303-1.833-1.293-1.828-2.419.062-13.831 1.585-29.39 4.179-42.689 2.926-14.998 6.822-25.361 11.912-31.682 4.658-5.783 10.283-8.079 16.714-6.825 13.497 2.632 17.553 18.258 12.057 46.442-3.399 17.427-10.019 37.75-16.863 51.777-.379.775-1.13 1.3-1.987 1.39-.089.008-.175.012-.261.012zm-20.734-20.264c7.627 2.486 14.498 6.986 20.129 13.17 6.07-13.418 11.758-31.411 14.807-47.042 4.862-24.928 2.135-38.581-8.105-40.578-4.536-.883-8.412.771-11.862 5.054-4.505 5.594-8.172 15.52-10.898 29.503-2.422 12.411-3.889 26.839-4.071 39.893z"/><path d="m90.67 99.952c-.086 0-.173-.004-.26-.014-.858-.089-1.609-.615-1.987-1.39-6.845-14.026-13.464-34.35-16.863-51.777-5.498-28.184-1.441-43.809 12.056-46.441 13.5-2.634 23.128 10.323 28.625 38.507 2.594 13.299 4.117 28.859 4.179 42.689.005 1.126-.743 2.117-1.828 2.419-8.552 2.386-16.143 7.588-21.951 15.043-.476.612-1.205.964-1.971.964zm-3.885-94.935c-.724 0-1.46.073-2.212.22-10.241 1.998-12.968 15.65-8.106 40.578 3.049 15.631 8.737 33.624 14.807 47.042 5.631-6.183 12.502-10.684 20.13-13.169-.182-13.053-1.649-27.481-4.069-39.894-4.506-23.097-11.414-34.777-20.55-34.777z"/><path d="m139.89 255.999c-6.138 0-13.776 0-13.776-8.779 0-7.611 6.18-13.803 13.776-13.803s13.775 6.192 13.775 13.803c0 8.779-7.638 8.779-13.775 8.779zm0-17.582c-4.839 0-8.776 3.949-8.776 8.803 0 3.214 1.312 3.779 8.776 3.779 7.463 0 8.775-.565 8.775-3.779 0-4.855-3.936-8.803-8.775-8.803z"/><path d="m109.396 255.999c-6.137 0-13.775 0-13.775-8.779 0-7.611 6.18-13.803 13.775-13.803s13.775 6.192 13.775 13.803c0 8.779-7.638 8.779-13.775 8.779zm0-17.582c-4.839 0-8.775 3.949-8.775 8.803 0 3.214 1.312 3.779 8.775 3.779s8.775-.565 8.775-3.779c0-4.855-3.936-8.803-8.775-8.803z"/><path d="m119.039 243.508c-1.265 0-2.35-.956-2.484-2.241-1.385-13.306-6.846-26.04-6.901-26.167-.548-1.267.034-2.739 1.3-3.288 1.268-.548 2.738.033 3.287 1.299.237.546 5.82 13.544 7.287 27.638.143 1.373-.854 2.603-2.228 2.745-.088.01-.175.014-.261.014z"/><path d="m130.246 243.508c-.087 0-.174-.004-.262-.014-1.374-.143-2.371-1.372-2.228-2.745 1.467-14.093 7.051-27.091 7.287-27.638.551-1.267 2.021-1.849 3.288-1.299 1.267.549 1.849 2.021 1.3 3.288-.055.127-5.517 12.86-6.902 26.167-.133 1.285-1.218 2.241-2.483 2.241z"/><path d="m124.644 251.851c-1.522 0-3.045-.109-4.526-.328-.684-.101-1.295-.48-1.688-1.048-.394-.568-.535-1.273-.39-1.949.089-.416.132-.843.132-1.307 0-3.063-1.552-5.857-4.152-7.475-2.583-1.608-5.752-1.765-8.478-.421-1.046.517-2.313.238-3.048-.67-8.756-10.82-27.506-39.302-12.547-70.007.5-1.026 1.632-1.584 2.748-1.354 4.391.897 8.303 2.391 11.629 4.44 6.316 3.89 13.49 5.946 20.748 5.946s14.433-2.056 20.748-5.946c3.111-1.917 6.746-3.35 10.806-4.261 1.132-.253 2.293.306 2.798 1.352 14.805 30.645-3.901 59.043-12.631 69.831-.734.907-2.001 1.187-3.048.67-1.221-.602-2.518-.906-3.854-.906-4.839 0-8.776 3.949-8.776 8.803 0 .463.044.891.133 1.307.145.675.004 1.381-.39 1.949-.395.568-1.005.947-1.688 1.048-1.482.217-3.004.326-4.526.326zm-1.478-5.04c.982.055 1.972.055 2.954 0 .216-7.423 6.31-13.395 13.77-13.395 1.423 0 2.814.218 4.157.648 8.289-10.712 23.125-35.101 11.723-61.222-2.729.772-5.188 1.827-7.327 3.145-7.105 4.376-15.188 6.689-23.371 6.689s-16.265-2.313-23.37-6.689c-2.344-1.443-5.06-2.569-8.095-3.355-11.576 26.201 3.314 50.685 11.633 61.434 3.808-1.221 7.951-.727 11.421 1.433 3.961 2.464 6.371 6.67 6.505 11.312zm23.965-72.952h.01z"/><path d="m148.699 242.678c-.756 0-1.477-.343-1.953-.941-.803-1.007-1.841-1.841-3.002-2.414-.682-.336-1.174-.963-1.337-1.706s.02-1.519.498-2.109c1.988-2.458 3.877-5.073 5.612-7.772.012-.018.023-.036.035-.053 4.24-6.612 9.546-16.896 11.006-28.708.117-.948.765-1.747 1.668-2.057.903-.312 1.903-.081 2.581.595 7.765 7.76 11.54 15.61 11.222 23.333-.371 8.985-6.177 15.721-10.982 19.789-.384.325-.856.526-1.356.578-1.244.13-2.669.282-4.312.458-2.565.274-5.66.604-9.422.994-.086.008-.172.013-.258.013zm-.192-6.212c.424.341.828.707 1.209 1.094 3.147-.328 5.8-.611 8.048-.852 1.348-.144 2.55-.272 3.627-.386 3.916-3.453 8.36-8.846 8.643-15.682.211-5.11-1.932-10.434-6.379-15.873-1.807 8.569-5.468 17.175-10.919 25.653-.007.012-.016.024-.023.037-1.325 2.059-2.734 4.071-4.206 6.009z"/><path d="m100.585 242.678c-.086 0-.172-.004-.258-.013-3.745-.388-6.829-.717-9.388-.991-1.656-.177-3.091-.33-4.344-.461-.5-.052-.973-.253-1.356-.578-4.805-4.068-10.611-10.803-10.983-19.788-.319-7.724 3.457-15.575 11.222-23.335.675-.674 1.676-.906 2.581-.595.903.311 1.55 1.109 1.667 2.057 1.129 9.13 4.603 18.426 10.326 27.629 1.937 3.113 4.062 6.103 6.329 8.904.478.591.661 1.367.498 2.109-.164.742-.655 1.37-1.337 1.706-1.163.573-2.201 1.407-3.001 2.413-.478.599-1.2.943-1.956.943zm-12.69-6.356c1.052.111 2.224.236 3.534.376 2.268.242 4.949.528 8.141.861.38-.387.785-.752 1.209-1.093-1.757-2.312-3.42-4.726-4.962-7.204-5.05-8.121-8.462-16.334-10.186-24.496-4.447 5.439-6.591 10.765-6.379 15.875.282 6.836 4.727 12.229 8.643 15.681z"/><path d="m176.066 211.725c-2.67 0-5.44-.515-8.209-1.678-.488-.205-.899-.561-1.173-1.015-1.57-2.608-3.714-5.28-6.37-7.94-.578-.546-.897-1.351-.8-2.146.274-2.219.407-4.303.405-6.372-.001-.779.362-1.514.981-1.988 13.488-10.315 24.707-12.455 31.59-6.016 4.975 4.654 5.603 11.347 1.637 17.468-3.492 5.39-10.353 9.687-18.061 9.687zm-5.55-6.004c8.012 2.948 15.921-1.009 19.416-6.402 1.249-1.928 3.665-6.868-.856-11.098-6.455-6.038-18.404 1.363-24.169 5.61-.034 1.476-.13 2.966-.29 4.505 2.36 2.452 4.339 4.929 5.899 7.385z"/><path d="m177.288 255.999h-32.766c-.796 0-1.544-.379-2.015-1.02-.472-.641-.609-1.468-.371-2.228l.041-.131c.303-.967 1.159-1.655 2.169-1.743 3.666-.319 4.318-1.236 4.318-3.658 0-2.01-.664-3.907-1.92-5.484-.569-.715-.704-1.683-.35-2.525.354-.843 1.139-1.425 2.048-1.519 3.773-.39 6.876-.722 9.446-.996 10.061-1.075 12.153-1.298 14.487-.741 4.653 1.11 8.309 4.853 9.312 9.533l.781 3.637v.001c.38 1.773-.02 3.554-1.096 4.886-1.019 1.263-2.509 1.988-4.084 1.988zm-24.286-5h24.286c.028 0 .118-.033.197-.131.126-.156.159-.396.096-.694l-.781-3.638c-.602-2.809-2.794-5.053-5.584-5.719-1.499-.357-3.89-.102-12.795.85-1.659.177-3.54.378-5.679.603.604 1.573.923 3.253.923 4.95 0 1.512-.247 2.756-.663 3.779z"/><path d="m104.763 255.999h-32.766c-1.575 0-3.064-.725-4.085-1.987-1.077-1.332-1.476-3.113-1.096-4.886l.78-3.639c1.004-4.68 4.659-8.422 9.312-9.533 2.335-.557 4.429-.333 14.49.741 2.569.275 5.671.606 9.444.996.909.094 1.694.676 2.048 1.519.354.842.22 1.811-.35 2.525-1.256 1.577-1.92 3.473-1.92 5.484 0 2.421.652 3.338 4.318 3.658 1.009.088 1.865.776 2.168 1.743l.041.131c.238.759.1 1.586-.371 2.228-.469.641-1.217 1.02-2.013 1.02zm-25.057-15.336c-.706 0-1.208.052-1.636.154-2.791.666-4.983 2.911-5.585 5.718l-.78 3.638c-.064.298-.031.538.096.694.087.107.179.131.197.131h24.286c-.415-1.023-.663-2.266-.663-3.779 0-1.697.318-3.377.923-4.95-2.138-.225-4.018-.426-5.676-.603-6.359-.679-9.399-1.003-11.162-1.003z"/><path d="m136.52 126.781c-1.377 0-2.495-1.114-2.5-2.492-.008-2.411.924-4.68 2.622-6.39 1.699-1.71 3.962-2.656 6.373-2.664h.028c4.963 0 9.008 4.029 9.024 8.995.005 1.381-1.111 2.504-2.492 2.508-.002 0-.005 0-.008 0-1.377 0-2.495-1.114-2.5-2.492-.007-2.214-1.812-4.011-4.024-4.011-.004 0-.009 0-.013 0-1.075.003-2.084.425-2.842 1.188-.757.762-1.173 1.774-1.169 2.849.005 1.381-1.111 2.504-2.492 2.508-.002.001-.005.001-.007.001z"/><path d="m112.857 126.76c-1.381 0-2.5-1.119-2.5-2.5 0-2.219-1.805-4.024-4.024-4.024s-4.023 1.805-4.023 4.024c0 1.381-1.119 2.5-2.5 2.5s-2.5-1.119-2.5-2.5c0-4.976 4.048-9.024 9.023-9.024s9.024 4.048 9.024 9.024c0 1.381-1.119 2.5-2.5 2.5z"/><path d="m189.577 157c-.393 0-.791-.093-1.162-.288l-2.094-1.102c-10.936-5.756-22.712-9.33-35.004-10.624-1.373-.145-2.369-1.375-2.225-2.748.145-1.374 1.383-2.367 2.748-2.225 12.926 1.361 25.311 5.12 36.809 11.172l2.094 1.102c1.223.643 1.691 2.155 1.048 3.377-.447.851-1.315 1.336-2.214 1.336z"/><path d="m183.361 173.74c-.608 0-1.218-.221-1.699-.667l-1.734-1.609c-9.062-8.406-19.502-14.923-31.031-19.371-1.288-.497-1.929-1.944-1.432-3.232.496-1.288 1.942-1.932 3.232-1.433 12.123 4.678 23.102 11.531 32.631 20.37l1.734 1.609c1.013.939 1.071 2.521.133 3.533-.493.531-1.162.8-1.834.8z"/><path d="m61.799 157c-.898 0-1.767-.486-2.214-1.336-.643-1.222-.174-2.734 1.048-3.377l2.094-1.102c11.5-6.052 23.884-9.811 36.809-11.172 1.372-.149 2.604.851 2.748 2.225.145 1.373-.852 2.604-2.225 2.748-12.292 1.294-24.068 4.868-35.003 10.624l-2.094 1.102c-.372.196-.771.288-1.163.288z"/><path d="m68.015 173.74c-.671 0-1.341-.269-1.833-.8-.939-1.012-.879-2.594.133-3.533l1.734-1.609c9.528-8.838 20.507-15.692 32.631-20.37 1.288-.498 2.735.145 3.232 1.433s-.145 2.735-1.433 3.232c-11.529 4.448-21.97 10.966-31.031 19.371l-1.734 1.609c-.481.446-1.091.667-1.699.667z"/><path d="m124.644 251.851c-1.522 0-3.045-.109-4.526-.328-.684-.101-1.295-.48-1.688-1.048-.394-.568-.535-1.273-.39-1.949.089-.416.132-.843.132-1.307 0-1.648-.425-3.18-1.264-4.555-.193-.317-.314-.674-.352-1.043-.924-8.874-3.539-17.249-4.621-20.438-.039-.115-.069-.233-.091-.353l-.264-1.432c-.028-.151-.042-.305-.042-.459v-20.267c0-7.255 5.902-13.157 13.157-13.157 3.536 0 6.854 1.383 9.343 3.894s3.844 5.841 3.813 9.377l-.086 20.164c-.001.149-.015.298-.042.445l-.245 1.331c-.022.12-.053.238-.092.353-1.09 3.203-3.725 11.62-4.656 20.561-.038.367-.157.721-.349 1.037-.829 1.368-1.268 2.939-1.268 4.543 0 .463.044.891.133 1.307.145.675.004 1.381-.39 1.949-.395.568-1.005.947-1.688 1.048-1.48.218-3.002.327-4.524.327zm-1.478-5.04c.982.055 1.973.055 2.954 0 .065-2.182.646-4.314 1.694-6.222 1.013-9.086 3.624-17.526 4.779-20.946l.173-.937.085-19.951c.019-2.203-.821-4.268-2.364-5.825s-3.601-2.414-5.792-2.414c-4.498 0-8.157 3.659-8.157 8.157v20.038l.191 1.039c1.146 3.403 3.738 11.799 4.742 20.818 1.049 1.902 1.631 4.041 1.695 6.243zm12.099-27.872h.01z"/><path d="m125.071 148.722c-7.005 0-14.697-6.04-14.697-11.541 0-6.533 9.2-6.533 14.697-6.533s14.697 0 14.697 6.533c.001 5.501-7.692 11.541-14.697 11.541zm0-13.074c-8.998 0-9.697 1.173-9.697 1.533 0 2.056 4.868 6.541 9.697 6.541s9.697-4.484 9.697-6.541c.001-.359-.699-1.533-9.697-1.533z"/><path d="m127.5 165.685h-4.856c-3.068 0-5.564-2.496-5.564-5.564v-3.088c0-1.148.782-2.149 1.896-2.426 2.117-.526 3.595-2.416 3.595-4.594 0-1.381 1.119-2.5 2.5-2.5s2.5 1.119 2.5 2.5c0 2.179 1.479 4.068 3.596 4.594 1.114.277 1.896 1.278 1.896 2.426v3.088c0 3.067-2.496 5.564-5.563 5.564zm-5.42-6.912v1.347c0 .306.258.564.564.564h4.856c.306 0 .564-.258.564-.564v-1.347c-1.148-.554-2.16-1.321-2.992-2.244-.833.924-1.844 1.69-2.992 2.244z"/><path d="m159.474 99.953c-.767 0-1.496-.352-1.973-.963-3.487-4.478-7.638-8.155-12.336-10.93-.757-.447-1.224-1.259-1.229-2.138-.07-12.477 1.34-27.372 3.772-39.843 2.521-12.919 5.808-21.871 10.05-27.364 3.962-5.131 8.739-7.197 14.195-6.129 3.487.68 6.275 2.488 8.288 5.375.237.34.386.734.434 1.147.808 7.096.104 16.404-2.092 27.665-3.399 17.427-10.019 37.751-16.863 51.777-.379.775-1.13 1.301-1.987 1.39-.087.008-.173.013-.259.013zm-10.539-15.448c3.642 2.303 6.969 5.101 9.935 8.354 6.07-13.418 11.758-31.411 14.807-47.043 2.029-10.403 2.735-18.971 2.102-25.482-1.216-1.52-2.785-2.451-4.78-2.84-3.544-.688-6.493.668-9.281 4.278-3.703 4.795-6.765 13.296-9.099 25.265-2.286 11.705-3.646 25.596-3.684 37.468z"/><path d="m90.67 99.953c-.086 0-.173-.004-.26-.014-.858-.089-1.609-.615-1.987-1.39-6.845-14.026-13.464-34.35-16.863-51.777-2.196-11.26-2.9-20.568-2.091-27.666.047-.412.196-.806.433-1.146 2.012-2.887 4.8-4.696 8.288-5.375 17.074-3.331 22.469 24.387 24.246 33.494 2.433 12.472 3.843 27.366 3.772 39.843-.005.879-.472 1.691-1.229 2.139-4.697 2.773-8.847 6.451-12.336 10.929-.478.611-1.207.963-1.973.963zm-16.304-79.62c-.634 6.512.072 15.08 2.101 25.482 3.049 15.632 8.737 33.625 14.808 47.044 2.966-3.254 6.292-6.052 9.934-8.354-.038-11.871-1.398-25.763-3.681-37.469-4.13-21.177-10.312-31.113-18.381-29.543-1.996.388-3.565 1.319-4.781 2.84z"/></svg>